<?xml version="1.0" encoding="utf-8"?>
<!-- Generator: Adobe Illustrator 25.0.0, SVG Export Plug-In . SVG Version: 6.00 Build 0)  -->
<svg version="1.1" id="Layer_1" xmlns="http://www.w3.org/2000/svg" xmlns:xlink="http://www.w3.org/1999/xlink" x="0px" y="0px"
	 viewBox="0 0 1440 733" style="enable-background:new 0 0 1440 733;" xml:space="preserve">
<style type="text/css">
	.st0{fill:#52361D;}
	.st1{fill:#FFAB23;}
</style>
<path class="st0" d="M983.1,88.8l-315,83.3L0,0v415.9L312.6,733h572.8H1440V387.5L983.1,88.8z"/>
<path class="st1" d="M105,134.9v3.7h1.3l0.3-2.2l0.3-0.4h3.7v13.6l-0.4,0.3l-1.6,0.1v1h6.3v-1l-1.6-0.1l-0.4-0.3V136h3.7l0.3,0.4
	l0.3,2.2h1.3v-3.7H105z M122.3,133.3l-2.9,0.9v0.7h1.8v14.7l-0.4,0.4l-1.3,0.1v0.9h5.3v-0.9l-1.1-0.1l-0.4-0.4v-8
	c1-0.5,1.9-0.8,2.7-0.8c1.8,0,2.4,0.7,2.4,2.5v6.4l-0.4,0.4l-1.1,0.1v0.9h5.2v-0.9l-1.3-0.1l-0.4-0.4v-6.8c0-2.4-1.1-3.6-3.2-3.6
	c-1,0-2.3,0.6-3.9,1.4v-7.3H122.3z M136.2,134c-0.8,0-1.4,0.6-1.4,1.4c0,0.8,0.6,1.4,1.4,1.4c0.8,0,1.4-0.6,1.4-1.4
	C137.6,134.6,136.9,134,136.2,134z M136.1,139.3l-2.8,0.9v0.7h1.7v8.7l-0.4,0.4l-1.3,0.1v0.9h5.4v-0.9l-1.3-0.1l-0.4-0.4v-10.3
	H136.1z M147.5,139.7c-0.8-0.4-1.8-0.5-2.8-0.5c-2.7,0-4.2,1.2-4.2,3.4c0,1.6,1.1,2.4,3.1,3.3c1.6,0.7,2.4,1.2,2.4,2.4
	c0,1.1-0.9,1.9-2.3,1.9c-0.7,0-1.4-0.2-2-0.6l-0.3-2h-1.2v3.1c0.8,0.3,1.9,0.5,3.1,0.5c2.8,0,4.5-1.4,4.5-3.6c0-0.9-0.3-1.6-0.9-2.1
	c-0.8-0.6-1.7-1-2.5-1.4c-1.3-0.6-2-1.2-2-2.2c0-1.1,0.7-1.7,2-1.7c0.6,0,1.2,0.2,1.8,0.5l0.2,1.7h1.2V139.7z M164.7,134.9v4.5
	c-0.7-0.2-1.5-0.3-2.1-0.3c-3.6,0-6.2,2.6-6.2,6.4c0,3.4,2,5.6,4.6,5.6c1.3,0,2.5-0.5,3.7-1.5v1.2h3.6v-0.9l-1.2-0.1l-0.4-0.4v-16.3
	h-0.9l-2.9,0.9v0.7H164.7z M164.7,148.9c-0.9,0.6-1.8,0.8-2.6,0.8c-2.2,0-3.6-1.7-3.6-4.5c0-3,1.7-4.9,4.1-4.9
	c0.6,0,1.3,0.1,2.1,0.4V148.9z M175.5,139.2c-3.2,0-5.6,2.4-5.6,6c0,3.6,2.4,6,5.6,6s5.6-2.4,5.6-6S178.8,139.2,175.5,139.2z
	 M175.5,140.2c1.9,0,3.3,1.9,3.3,5c0,3.1-1.4,5-3.3,5c-1.9,0-3.3-1.9-3.3-5C172.2,142.1,173.6,140.2,175.5,140.2z M192.9,140.8
	c-0.6-1.1-1.5-1.6-2.6-1.6c-1,0-2.3,0.5-3.8,1.4v-1.3h-0.9l-2.8,0.9v0.7h1.7v8.7L184,150l-1.3,0.1v0.9h5.3v-0.9l-1.2-0.1l-0.4-0.4
	v-8c1.1-0.5,1.9-0.8,2.7-0.8c1.4,0,2.1,0.8,2.1,2.5v6.4l-0.4,0.4l-1.2,0.1v0.9h5.1v-0.9l-1.1-0.1l-0.4-0.4v-8c1-0.5,1.9-0.8,2.7-0.8
	c1.5,0,2.2,0.8,2.2,2.5v6.4l-0.4,0.4l-1.1,0.1v0.9h5.2v-0.9l-1.3-0.1l-0.4-0.4v-6.8c0-2.4-1.2-3.6-3.1-3.6
	C196.1,139.2,194.7,139.8,192.9,140.8z M210.2,149.6l0.3,1.4h3.4v-0.9l-1.3-0.1l-0.4-0.4v-7c0-2.4-1.1-3.5-3.6-3.5
	c-3,0-4.8,1.2-4.8,2.7c0,0.6,0.2,0.7,0.7,0.7h1.7v-2c0.6-0.3,1.2-0.4,1.8-0.4c1.7,0,2.2,0.8,2.2,2.7v0.8c-4.8,1.2-7,1.9-7,4.4
	c0,1.8,1.2,3.1,3.1,3.1C207.5,151.2,208.7,150.6,210.2,149.6z M210.2,148.8c-1.2,0.7-2.2,1.1-3,1.1c-1.2,0-1.9-0.8-1.9-2
	c0-1.8,1.5-2.4,4.9-3.3V148.8z M218.1,134c-0.8,0-1.4,0.6-1.4,1.4c0,0.8,0.6,1.4,1.4,1.4c0.8,0,1.4-0.6,1.4-1.4
	C219.5,134.6,218.8,134,218.1,134z M218,139.3l-2.8,0.9v0.7h1.7v8.7l-0.4,0.4l-1.3,0.1v0.9h5.4v-0.9l-1.3-0.1l-0.4-0.4v-10.3H218z
	 M221.8,151h5.3v-0.9l-1.2-0.1l-0.4-0.4v-8c1-0.5,1.9-0.8,2.7-0.8c1.8,0,2.4,0.7,2.4,2.5v6.4l-0.4,0.4l-1.2,0.1v0.9h5.3v-0.9
	L233,150l-0.4-0.4v-6.8c0-2.4-1.2-3.6-3.2-3.6c-1,0-2.3,0.6-3.9,1.4v-1.3h-0.9l-2.8,0.9v0.7h1.7v8.7l-0.4,0.4l-1.3,0.1V151z
	 M245.1,134c-0.8,0-1.4,0.6-1.4,1.4c0,0.8,0.6,1.4,1.4,1.4c0.8,0,1.4-0.6,1.4-1.4C246.5,134.6,245.9,134,245.1,134z M245,139.3
	l-2.8,0.9v0.7h1.7v8.7l-0.4,0.4l-1.3,0.1v0.9h5.4v-0.9l-1.3-0.1l-0.4-0.4v-10.3H245z M256.4,139.7c-0.8-0.4-1.8-0.5-2.8-0.5
	c-2.7,0-4.2,1.2-4.2,3.4c0,1.6,1.1,2.4,3.1,3.3c1.6,0.7,2.4,1.2,2.4,2.4c0,1.1-0.9,1.9-2.3,1.9c-0.7,0-1.4-0.2-2-0.6l-0.3-2h-1.2
	v3.1c0.8,0.3,1.9,0.5,3.1,0.5c2.8,0,4.5-1.4,4.5-3.6c0-0.9-0.3-1.6-0.9-2.1c-0.8-0.6-1.7-1-2.5-1.4c-1.3-0.6-2-1.2-2-2.2
	c0-1.1,0.7-1.7,2-1.7c0.6,0,1.2,0.2,1.8,0.5l0.2,1.7h1.2V139.7z M270.9,139.2c-3.2,0-5.6,2.4-5.6,6c0,3.6,2.4,6,5.6,6s5.6-2.4,5.6-6
	S274.1,139.2,270.9,139.2z M270.9,140.2c1.9,0,3.3,1.9,3.3,5c0,3.1-1.4,5-3.3,5c-1.9,0-3.3-1.9-3.3-5
	C267.6,142.1,269,140.2,270.9,140.2z M277.3,139.5v0.9l1.5,0.1L282,151h1.5l3.2-9.1l2.9,9.1h1.5l3.4-10.5l1.3-0.2v-0.9h-4.2v0.9
	l1.3,0.1l0.2,0.4l-2.4,7.8l-2.8-9.2h-1.5l-3.2,9.2l-2.2-7.8l0.3-0.4l1.3-0.1v-0.9H277.3z M296.6,151h5.3v-0.9l-1.2-0.1l-0.4-0.4v-8
	c1-0.5,1.9-0.8,2.7-0.8c1.8,0,2.4,0.7,2.4,2.5v6.4L305,150l-1.2,0.1v0.9h5.3v-0.9l-1.3-0.1l-0.4-0.4v-6.8c0-2.4-1.2-3.6-3.2-3.6
	c-1,0-2.3,0.6-3.9,1.4v-1.3h-0.9l-2.8,0.9v0.7h1.7v8.7l-0.4,0.4l-1.3,0.1V151z M320.3,148.5c-1.4,0.9-2.6,1.4-3.8,1.4
	c-2.4,0-4-1.8-4-4.9c0-0.1,0-0.2,0-0.3h7.8c0-0.3,0-0.5,0-0.7c0-3-1.7-4.7-4.3-4.7c-3.2,0-5.5,2.5-5.5,6.1c0,3.5,2.2,5.9,5.4,5.9
	c1.5,0,3.1-0.5,4.5-1.4V148.5z M318.2,143.7h-5.5c0.1-2,1.5-3.4,3-3.4c1.6,0,2.5,1.1,2.5,3C318.2,143.4,318.2,143.6,318.2,143.7z
	 M330.5,134.9v4.5c-0.7-0.2-1.5-0.3-2.1-0.3c-3.6,0-6.2,2.6-6.2,6.4c0,3.4,2,5.6,4.6,5.6c1.3,0,2.5-0.5,3.7-1.5v1.2h3.6v-0.9
	l-1.2-0.1l-0.4-0.4v-16.3h-0.9l-2.9,0.9v0.7H330.5z M330.5,148.9c-0.9,0.6-1.8,0.8-2.6,0.8c-2.2,0-3.6-1.7-3.6-4.5
	c0-3,1.7-4.9,4.1-4.9c0.6,0,1.3,0.1,2.1,0.4V148.9z M344.7,133.3l-3,0.9v0.7h1.9V151h3.1c4.6,0,7-2.2,7-6.3c0-3.3-1.9-5.5-4.8-5.5
	c-1.1,0-2.1,0.3-3.3,0.8v-6.7H344.7z M345.6,149.9v-9c0.8-0.2,1.5-0.4,2.1-0.4c2.4,0,3.8,1.7,3.8,4.7c0,3.3-1.4,4.8-4.6,4.8
	C346.8,149.9,346.4,149.9,345.6,149.9z M354.5,139.5v0.9l1.5,0.1l4,10.4c-0.6,1.7-1.3,2.9-1.9,3.6l-2.3-0.9
	c-0.4,0.4-0.6,0.8-0.6,1.3c0,0.8,0.6,1.3,1.7,1.3c1.6,0,2.7-1.3,3.8-4l4.8-11.7l1.4-0.2v-0.9h-4.3v0.9l1.3,0.1l0.2,0.4l-3,7.5
	l-2.9-7.5l0.3-0.4l1.3-0.1v-0.9H354.5z"/>
<path class="st1" d="M266.5,228.2v34.5h13.5l3.1-20.9l3.1-2.5h23.4v106.1l-3.3,3.1l-12.7,1v9.6h58.3v-9.6l-12.7-1l-3.3-3.1V239.3
	h23.4l2.9,2.5l3.3,20.9H379v-34.5H266.5z M428.2,279.2c-25.1,0-41.4,16.3-41.4,41c0,24.2,16.2,40.2,40.2,40.2
	c25.3,0,41.4-16.2,41.4-39.8C468.4,295,452.7,279.2,428.2,279.2z M427.6,287.6c11.4,0,18.7,11.4,18.7,32.3c0,20.8-7,31.8-18.9,31.8
	c-11.2,0-18.4-11.4-18.4-32.3C409,298.8,416.2,287.6,427.6,287.6z M478.2,359h39.5v-7.2l-7-0.6l-2.2-2.4V296
	c6.1-1.8,11.2-2.7,15.2-2.7c10.1,0,14.4,5.4,14.4,17.3v38.2l-2.2,2.4l-6.9,0.6v7.2h39.2v-7.2l-8.5-0.6l-2.1-2.4v-42.9
	c0-17.8-7-26.6-21.8-26.6c-7,0-16,3.5-27.4,9.8v-9.4h-7.7l-23,7.5v6.4h10.9v55.2l-2.2,2.4l-8.2,0.6V359z M575,359h39.5v-7.2l-7-0.6
	l-2.2-2.4V296c6.1-1.8,11.2-2.7,15.2-2.7c10.1,0,14.4,5.4,14.4,17.3v38.2l-2.2,2.4l-6.9,0.6v7.2H665v-7.2l-8.5-0.6l-2.1-2.4v-42.9
	c0-17.8-7-26.6-21.8-26.6c-7,0-16,3.5-27.4,9.8v-9.4h-7.7l-23,7.5v6.4h10.9v55.2l-2.2,2.4l-8.2,0.6V359z M721.8,349.9l2.1,9.1h28.5
	v-7l-8.5-0.8l-2.1-2.2v-41.4c0-20.5-7.5-28.3-29.9-28.3c-21.1,0-34.9,9.4-34.9,18.6c0,4.3,2.6,5.9,7.4,5.9h14.7v-15
	c2.9-0.6,5.3-1,7.7-1c10.6,0,15.2,5.1,15.2,16.6v4.8c-33.4,7.5-48.6,12.2-48.6,30.6c0,12.2,8.6,20.8,21,20.8
	C703,360.4,711.6,356.8,721.8,349.9z M721.8,343.3c-6.2,3.2-11.4,4.8-15.5,4.8c-7.4,0-11.8-4.6-11.8-12c0-10.6,8.5-14.7,27.4-18.9
	V343.3z M834.1,290.2c-4.3-7.4-10.7-11.2-18.7-11.2c-7,0-15.4,3.7-26.2,10.1v-9.4h-7.7l-22.6,7.5v6.4h10.4v55.2l-2.2,2.4l-8.2,0.6
	v7.2h39.2v-7.2l-6.7-0.6l-2.2-2.4V296c5.1-1.9,9.6-2.9,13.4-2.9c10.2,0,14.4,5.3,14.4,16.5v38.9l-2.2,2.7l-6.6,0.6v7.2H846v-7
	l-7.2-0.8l-2.2-2.4v-52.5c5.3-1.9,9.8-3,13.8-3c10.6,0,14.7,5.3,14.7,17.3v38.2l-2.2,2.4l-6.9,0.6v7.2h39.4v-7.2l-8.5-0.6l-2.1-2.4
	v-42.9c0-17.8-7.4-26.6-22.2-26.6C856.5,279.3,846.9,282.8,834.1,290.2z"/>
<path class="st1" d="M500.1,560.7c12.1,4.3,25.2,6.4,37.6,6.4c32,0,51.7-16.8,51.7-40c0-11.5-6.2-22-17.5-29.2
	c-11.5-7.4-21.8-10.3-27.9-14c-10.3-6.2-15.8-12.1-15.8-21.1c0-10.7,8.8-18.5,23-18.5c6.2,0,10.7,1,14.2,2.7l2.7,2.7l3.3,20.3h14
	v-31.6c-12.3-4.3-24.6-6.6-36.7-6.6c-27.9,0-46,16.8-46,38.4c0,9.6,4.7,19.1,13.7,26.7c8.6,7.2,17.7,10.5,25.5,14.4
	c13.8,7,20.9,14,20.9,24.6c0,10.7-9.4,18.5-25.2,18.5c-6,0-11.7-1-17.2-2.7l-2.5-2.9l-3.1-23.4h-14.8V560.7z M632.9,508.6
	c-17.7,0-29.3,11.5-29.3,28.9c0,17.1,11.4,28.4,28.4,28.4c17.9,0,29.3-11.4,29.3-28.1C661.3,519.8,650.2,508.6,632.9,508.6z
	 M632.5,514.6c8,0,13.2,8,13.2,22.8c0,14.7-5,22.5-13.3,22.5c-7.9,0-13-8-13-22.8C619.3,522.5,624.4,514.6,632.5,514.6z
	 M721.3,516.4c-3.1-5.2-7.6-7.9-13.2-7.9c-5,0-10.8,2.6-18.5,7.1V509h-5.4l-15.9,5.3v4.5h7.3v39l-1.6,1.7l-5.8,0.5v5.1h27.7v-5.1
	l-4.7-0.5l-1.6-1.7v-37.3c3.6-1.4,6.8-2,9.5-2c7.2,0,10.2,3.7,10.2,11.6v27.5l-1.6,1.9l-4.6,0.5v5.1h26.7v-5l-5.1-0.6l-1.6-1.7
	v-37.1c3.7-1.4,6.9-2.1,9.7-2.1c7.5,0,10.4,3.7,10.4,12.2v27l-1.6,1.7l-4.9,0.5v5.1h27.8v-5.1l-6-0.5l-1.5-1.7v-30.3
	c0-12.5-5.2-18.8-15.7-18.8C737.1,508.7,730.3,511.2,721.3,516.4z M817.9,559.9v-8c-5.5,3.4-10.8,5.1-15.7,5.1
	c-10.5,0-17.4-8-17.4-21.6c0-12.9,6.9-21,14.8-21c0.8,0,1.7,0.1,2.8,0.3v12c2,1.5,4.2,2.1,6.7,2.1c4.9,0,8.1-3.3,8.1-7.7
	c0-6.9-7-12.3-18.6-12.3c-17,0-29.2,12.1-29.2,29.3c0,16.4,10.7,27.8,27.1,27.8C803.7,565.9,810.6,563.9,817.9,559.9z M837.7,481.5
	l-16.7,5.3v4.4h8.2v66.6l-1.6,1.7l-5.8,0.5v5.1h27.9v-5.1l-5-0.5l-1.7-1.7v-37.3c4.3-1.2,7.9-1.9,10.8-1.9c7,0,10.2,3.8,10.2,12.2
	v27l-1.6,1.7l-4.9,0.5v5.1h27.7v-5.1l-6-0.5l-1.5-1.7v-30.3c0-12.5-5.1-18.8-15.5-18.8c-5.1,0-11.2,2.5-19.3,6.9v-34.1H837.7z
	 M925.3,558.6l1.5,6.4h20.1v-5l-6-0.6l-1.5-1.6v-29.3c0-14.5-5.3-20-21.1-20c-14.9,0-24.6,6.7-24.6,13.1c0,3.1,1.8,4.2,5.2,4.2h10.4
	v-10.6c2-0.5,3.7-0.7,5.4-0.7c7.5,0,10.7,3.6,10.7,11.8v3.4c-23.6,5.3-34.4,8.6-34.4,21.6c0,8.6,6.1,14.7,14.8,14.7
	C912,566,918.1,563.4,925.3,558.6z M925.3,553.9c-4.4,2.3-8,3.4-11,3.4c-5.2,0-8.4-3.3-8.4-8.5c0-7.5,6-10.4,19.3-13.3V553.9z
	 M951.6,565h27.9v-5.1l-5-0.5l-1.6-1.7v-37.3c4.3-1.2,7.9-1.9,10.7-1.9c7.1,0,10.2,3.8,10.2,12.2v27l-1.6,1.7l-4.9,0.5v5.1h27.7
	v-5.1l-6-0.5l-1.5-1.7v-30.3c0-12.5-5-18.8-15.4-18.8c-5,0-11.3,2.5-19.3,6.9V509h-5.4l-16.3,5.3v4.5h7.7v39l-1.6,1.7l-5.8,0.5V565z
	 M1055.2,558.6l1.5,6.4h20.1v-5l-6-0.6l-1.5-1.6v-29.3c0-14.5-5.3-20-21.1-20c-14.9,0-24.6,6.7-24.6,13.1c0,3.1,1.8,4.2,5.2,4.2
	h10.4v-10.6c2-0.5,3.7-0.7,5.4-0.7c7.5,0,10.7,3.6,10.7,11.8v3.4c-23.6,5.3-34.4,8.6-34.4,21.6c0,8.6,6.1,14.7,14.8,14.7
	C1041.9,566,1048,563.4,1055.2,558.6z M1055.2,553.9c-4.4,2.3-8,3.4-11,3.4c-5.2,0-8.4-3.3-8.4-8.5c0-7.5,6-10.4,19.3-13.3V553.9z
	 M1080.8,565h28.5v-5l-5.7-0.5l-1.5-1.6v-18.5h5.5l13.1,21.1v4.4h21.7v-5l-6.7-0.6l-18-29.2l12.9-14.4l7.4-0.9v-5H1115v5l5,0.6
	l0.8,1.2l-16.2,18.9h-2.5v-54.2h-4.7l-17.4,5.3v4.4h8.3v66.6l-1.6,1.7l-5.9,0.6V565z M1158.7,483.2c-4.6,0-8.1,3.6-8.1,8.5
	c0,5,3.7,8.4,8.3,8.4c4.7,0,8.4-3.5,8.4-8.6C1167.2,486.8,1163.8,483.2,1158.7,483.2z M1159.9,509l-15.9,5.3v4.5h7.5v39l-1.6,1.7
	l-6.1,0.5v5.1h29.6v-5.1l-6.3-0.5l-1.7-1.7V509H1159.9z M1187.2,518.8v42.9c0,11.1-0.9,18.5-3.7,22.4l-11.1-10.3
	c-4.1,0.8-6.5,3.8-6.5,7.5c0,4.5,3.9,7.9,10.3,7.9c7.2,0,14.4-3.4,18.8-9c5.1-6.6,6.1-14.9,6.1-26.2v-45h-4.7l-17.1,5.4v4.4H1187.2z
	 M1185.4,491.7c0,5,3.7,8.4,8.3,8.4c4.6,0,8.5-3.6,8.5-8.2c0-5-3.6-8.6-8.2-8.6C1188.8,483.2,1185.4,486.7,1185.4,491.7z"/>
</svg>
