<svg width="1440" height="733" viewBox="0 0 1440 733" fill="none" xmlns="http://www.w3.org/2000/svg">
<path d="M1186 121L0 0V363L198 612.5L884 732.5L1440 566L1186 121Z" fill="#52361D"/>
<path d="M104.986 134.896V138.592H106.306L106.642 136.36L106.978 136H110.674V149.56L110.242 149.896L108.634 150.016V151H114.898V150.016L113.29 149.896L112.858 149.56V136H116.554L116.89 136.36L117.226 138.592H118.546V134.896H104.986ZM122.306 133.336L119.378 134.2V134.944H121.226V149.632L120.818 150.016L119.522 150.136V151H124.778V150.136L123.65 150.016L123.218 149.632V141.592C124.25 141.064 125.138 140.8 125.906 140.8C127.682 140.8 128.33 141.52 128.33 143.272V149.632L127.922 150.016L126.794 150.136V151H132.026V150.136L130.754 150.016L130.322 149.632V142.864C130.322 140.464 129.194 139.216 127.106 139.216C126.074 139.216 124.826 139.768 123.218 140.656V133.336H122.306ZM136.165 134.008C135.397 134.008 134.773 134.608 134.773 135.4C134.773 136.168 135.397 136.768 136.165 136.768C136.933 136.768 137.557 136.168 137.557 135.4C137.557 134.632 136.933 134.008 136.165 134.008ZM136.069 139.336L133.309 140.2V140.944H134.989V149.632L134.581 150.016L133.309 150.136V151H138.709V150.136L137.413 150.016L136.981 149.632V139.336H136.069ZM147.451 139.744C146.635 139.384 145.699 139.216 144.643 139.216C141.907 139.216 140.395 140.464 140.395 142.576C140.395 144.184 141.451 144.952 143.491 145.864C145.075 146.584 145.939 147.016 145.939 148.264C145.939 149.392 145.075 150.208 143.683 150.208C142.987 150.208 142.315 150.016 141.643 149.632L141.355 147.592H140.203V150.712C141.043 151.024 142.099 151.216 143.323 151.216C146.155 151.216 147.811 149.848 147.811 147.616C147.811 146.728 147.475 146.008 146.899 145.552C146.107 144.904 145.195 144.568 144.355 144.16C143.011 143.512 142.315 143.008 142.315 141.976C142.315 140.896 143.035 140.248 144.307 140.248C144.883 140.248 145.459 140.416 146.083 140.752L146.275 142.456H147.451V139.744ZM164.676 134.944V139.456C163.932 139.288 163.212 139.192 162.54 139.192C158.892 139.192 156.348 141.76 156.348 145.6C156.348 148.96 158.364 151.216 160.98 151.216C162.3 151.216 163.452 150.736 164.676 149.752V151H168.228V150.136L167.076 150.016L166.668 149.632V133.336H165.756L162.828 134.2V134.944H164.676ZM164.676 148.864C163.788 149.416 162.924 149.704 162.06 149.704C159.9 149.704 158.46 148 158.46 145.192C158.46 142.192 160.14 140.248 162.564 140.248C163.14 140.248 163.86 140.392 164.676 140.632V148.864ZM175.511 139.216C172.271 139.216 169.943 141.64 169.943 145.216C169.943 148.768 172.295 151.216 175.511 151.216C178.727 151.216 181.103 148.768 181.103 145.216C181.103 141.664 178.751 139.216 175.511 139.216ZM175.511 140.248C177.455 140.248 178.847 142.12 178.847 145.216C178.847 148.336 177.455 150.184 175.511 150.184C173.591 150.184 172.199 148.312 172.199 145.216C172.199 142.096 173.567 140.248 175.511 140.248ZM192.888 140.824C192.336 139.768 191.424 139.216 190.248 139.216C189.24 139.216 187.992 139.72 186.408 140.656V139.336H185.496L182.712 140.2V140.944H184.416V149.632L184.008 150.016L182.712 150.136V151H187.968V150.136L186.816 150.016L186.408 149.632V141.592C187.464 141.064 188.352 140.8 189.144 140.8C190.584 140.8 191.256 141.592 191.256 143.272V149.632L190.848 150.016L189.696 150.136V151H194.808V150.136L193.68 150.016L193.248 149.632V141.592C194.28 141.088 195.192 140.8 195.96 140.8C197.448 140.8 198.12 141.592 198.12 143.272V149.632L197.688 150.016L196.56 150.136V151H201.792V150.136L200.52 150.016L200.112 149.632V142.864C200.112 140.488 198.912 139.216 197.016 139.216C196.056 139.216 194.688 139.768 192.888 140.824ZM210.235 149.608L210.547 151H213.931V150.136L212.659 150.016L212.227 149.632V142.672C212.227 140.248 211.171 139.216 208.651 139.216C205.627 139.216 203.803 140.464 203.803 141.928C203.803 142.504 203.995 142.672 204.547 142.672H206.203V140.656C206.851 140.392 207.427 140.272 208.027 140.272C209.755 140.272 210.235 141.064 210.235 142.96V143.728C205.435 144.88 203.227 145.6 203.227 148.096C203.227 149.896 204.403 151.168 206.299 151.168C207.451 151.168 208.723 150.64 210.235 149.608ZM210.235 148.792C209.035 149.488 208.051 149.872 207.259 149.872C206.059 149.872 205.339 149.08 205.339 147.904C205.339 146.152 206.851 145.504 210.235 144.568V148.792ZM218.079 134.008C217.311 134.008 216.687 134.608 216.687 135.4C216.687 136.168 217.311 136.768 218.079 136.768C218.847 136.768 219.471 136.168 219.471 135.4C219.471 134.632 218.847 134.008 218.079 134.008ZM217.983 139.336L215.223 140.2V140.944H216.903V149.632L216.495 150.016L215.223 150.136V151H220.623V150.136L219.327 150.016L218.895 149.632V139.336H217.983ZM221.829 151H227.085V150.136L225.933 150.016L225.525 149.632V141.592C226.557 141.064 227.445 140.8 228.213 140.8C229.989 140.8 230.637 141.52 230.637 143.272V149.632L230.229 150.016L229.077 150.136V151H234.333V150.136L233.037 150.016L232.629 149.632V142.864C232.629 140.464 231.477 139.216 229.389 139.216C228.357 139.216 227.133 139.768 225.525 140.656V139.336H224.613L221.829 140.2V140.944H223.533V149.632L223.125 150.016L221.829 150.136V151ZM245.126 134.008C244.358 134.008 243.734 134.608 243.734 135.4C243.734 136.168 244.358 136.768 245.126 136.768C245.894 136.768 246.518 136.168 246.518 135.4C246.518 134.632 245.894 134.008 245.126 134.008ZM245.03 139.336L242.27 140.2V140.944H243.95V149.632L243.542 150.016L242.27 150.136V151H247.67V150.136L246.374 150.016L245.942 149.632V139.336H245.03ZM256.412 139.744C255.596 139.384 254.66 139.216 253.604 139.216C250.868 139.216 249.356 140.464 249.356 142.576C249.356 144.184 250.412 144.952 252.452 145.864C254.036 146.584 254.9 147.016 254.9 148.264C254.9 149.392 254.036 150.208 252.644 150.208C251.948 150.208 251.276 150.016 250.604 149.632L250.316 147.592H249.164V150.712C250.004 151.024 251.06 151.216 252.284 151.216C255.116 151.216 256.772 149.848 256.772 147.616C256.772 146.728 256.436 146.008 255.86 145.552C255.068 144.904 254.156 144.568 253.316 144.16C251.972 143.512 251.276 143.008 251.276 141.976C251.276 140.896 251.996 140.248 253.268 140.248C253.844 140.248 254.42 140.416 255.044 140.752L255.236 142.456H256.412V139.744ZM270.901 139.216C267.661 139.216 265.333 141.64 265.333 145.216C265.333 148.768 267.685 151.216 270.901 151.216C274.117 151.216 276.493 148.768 276.493 145.216C276.493 141.664 274.141 139.216 270.901 139.216ZM270.901 140.248C272.845 140.248 274.237 142.12 274.237 145.216C274.237 148.336 272.845 150.184 270.901 150.184C268.981 150.184 267.589 148.312 267.589 145.216C267.589 142.096 268.957 140.248 270.901 140.248ZM277.335 139.456V140.344L278.799 140.488L281.991 151H283.479L286.719 141.904L289.623 151H291.111L294.543 140.536L295.887 140.344V139.456H291.639V140.344L292.935 140.44L293.127 140.824L290.679 148.624L287.847 139.456H286.383L283.167 148.624L280.983 140.824L281.271 140.44L282.543 140.344V139.456H277.335ZM296.618 151H301.874V150.136L300.722 150.016L300.314 149.632V141.592C301.346 141.064 302.234 140.8 303.002 140.8C304.778 140.8 305.426 141.52 305.426 143.272V149.632L305.018 150.016L303.866 150.136V151H309.122V150.136L307.826 150.016L307.418 149.632V142.864C307.418 140.464 306.266 139.216 304.178 139.216C303.146 139.216 301.922 139.768 300.314 140.656V139.336H299.402L296.618 140.2V140.944H298.322V149.632L297.914 150.016L296.618 150.136V151ZM320.291 148.456C318.923 149.368 317.723 149.848 316.523 149.848C314.099 149.848 312.491 148.024 312.491 144.952C312.491 144.88 312.491 144.784 312.491 144.688H320.267C320.291 144.424 320.291 144.184 320.291 143.944C320.291 140.992 318.587 139.216 315.971 139.216C312.755 139.216 310.427 141.688 310.427 145.312C310.427 148.84 312.611 151.216 315.779 151.216C317.291 151.216 318.851 150.736 320.291 149.776V148.456ZM318.155 143.68H312.611C312.755 141.64 314.123 140.296 315.659 140.296C317.267 140.296 318.155 141.352 318.155 143.296C318.155 143.416 318.155 143.56 318.155 143.68ZM330.52 134.944V139.456C329.776 139.288 329.056 139.192 328.384 139.192C324.736 139.192 322.192 141.76 322.192 145.6C322.192 148.96 324.208 151.216 326.824 151.216C328.144 151.216 329.296 150.736 330.52 149.752V151H334.072V150.136L332.92 150.016L332.512 149.632V133.336H331.6L328.672 134.2V134.944H330.52ZM330.52 148.864C329.632 149.416 328.768 149.704 327.904 149.704C325.744 149.704 324.304 148 324.304 145.192C324.304 142.192 325.984 140.248 328.408 140.248C328.984 140.248 329.704 140.392 330.52 140.632V148.864ZM344.722 133.336L341.77 134.2V134.944H343.642V151H346.714C351.298 151 353.674 148.816 353.674 144.688C353.674 141.424 351.754 139.216 348.922 139.216C347.866 139.216 346.786 139.504 345.634 140.056V133.336H344.722ZM345.634 149.896V140.872C346.426 140.632 347.146 140.488 347.746 140.488C350.146 140.488 351.514 142.144 351.514 145.144C351.514 148.456 350.074 149.92 346.954 149.92C346.834 149.92 346.378 149.92 345.634 149.896ZM354.492 139.456V140.344L355.956 140.488L359.988 150.904C359.388 152.608 358.692 153.808 358.044 154.504L355.74 153.592C355.332 153.976 355.116 154.408 355.116 154.888C355.116 155.68 355.764 156.232 356.772 156.232C358.332 156.232 359.484 154.912 360.612 152.2L365.412 140.536L366.804 140.344V139.456H362.532V140.344L363.828 140.44L364.02 140.824L361.02 148.288L358.14 140.824L358.428 140.44L359.7 140.344V139.456H354.492Z" fill="#FFAB23"/>
<path d="M266.482 228.155V262.67H279.937L283.057 241.805L286.177 239.27H309.577V345.35L306.262 348.47L293.587 349.445V359H351.892V349.445L339.217 348.47L335.902 345.35V239.27H359.302L362.227 241.805L365.542 262.67H378.997V228.155H266.482ZM428.217 279.16C403.097 279.16 386.777 295.48 386.777 320.12C386.777 344.28 402.937 360.28 426.937 360.28C452.217 360.28 468.377 344.12 468.377 320.44C468.377 295 452.697 279.16 428.217 279.16ZM427.577 287.64C438.937 287.64 446.297 299 446.297 319.96C446.297 340.76 439.257 351.8 427.417 351.8C416.217 351.8 409.017 340.44 409.017 319.48C409.017 298.84 416.217 287.64 427.577 287.64ZM478.161 359H517.681V351.8L510.641 351.16L508.401 348.76V295.96C514.481 294.2 519.601 293.24 523.601 293.24C533.681 293.24 538.001 298.68 538.001 310.52V348.76L535.761 351.16L528.881 351.8V359H568.081V351.8L559.601 351.16L557.521 348.76V305.88C557.521 288.12 550.481 279.32 535.761 279.32C528.721 279.32 519.761 282.84 508.401 289.08V279.64H500.721L477.681 287.16V293.56H488.561V348.76L486.321 351.16L478.161 351.8V359ZM575.036 359H614.556V351.8L607.516 351.16L605.276 348.76V295.96C611.356 294.2 616.476 293.24 620.476 293.24C630.556 293.24 634.876 298.68 634.876 310.52V348.76L632.636 351.16L625.756 351.8V359H664.956V351.8L656.476 351.16L654.396 348.76V305.88C654.396 288.12 647.356 279.32 632.636 279.32C625.596 279.32 616.636 282.84 605.276 289.08V279.64H597.596L574.556 287.16V293.56H585.436V348.76L583.196 351.16L575.036 351.8V359ZM721.831 349.88L723.911 359H752.391V351.96L743.911 351.16L741.831 348.92V307.48C741.831 287 734.311 279.16 711.911 279.16C690.791 279.16 677.031 288.6 677.031 297.72C677.031 302.04 679.591 303.64 684.391 303.64H699.111V288.6C701.991 287.96 704.391 287.64 706.791 287.64C717.351 287.64 721.991 292.76 721.991 304.28V309.08C688.551 316.6 673.351 321.24 673.351 339.64C673.351 351.8 681.991 360.44 694.311 360.44C702.951 360.44 711.591 356.76 721.831 349.88ZM721.831 343.32C715.591 346.52 710.471 348.12 706.311 348.12C698.951 348.12 694.471 343.48 694.471 336.12C694.471 325.56 702.951 321.4 721.831 317.24V343.32ZM834.142 290.2C829.822 282.84 823.422 279 815.422 279C808.382 279 800.062 282.68 789.182 289.08V279.64H781.502L758.942 287.16V293.56H769.342V348.76L767.102 351.16L758.942 351.8V359H798.142V351.8L791.422 351.16L789.182 348.76V295.96C794.302 294.04 798.782 293.08 802.622 293.08C812.862 293.08 817.022 298.36 817.022 309.56V348.44L814.782 351.16L808.222 351.8V359H845.982V351.96L838.782 351.16L836.542 348.76V296.28C841.822 294.36 846.302 293.24 850.302 293.24C860.862 293.24 865.022 298.52 865.022 310.52V348.76L862.782 351.16L855.902 351.8V359H895.262V351.8L886.782 351.16L884.702 348.76V305.88C884.702 288.12 877.342 279.32 862.462 279.32C856.542 279.32 846.942 282.84 834.142 290.2Z" fill="#FFAB23"/>
<path d="M500.13 560.71C512.22 565 525.285 567.145 537.765 567.145C569.745 567.145 589.44 550.375 589.44 527.17C589.44 515.665 583.2 505.135 571.89 497.92C560.385 490.51 550.05 487.585 544.005 483.88C533.67 477.64 528.21 471.79 528.21 462.82C528.21 452.095 536.985 444.295 551.22 444.295C557.46 444.295 561.945 445.27 565.455 447.025L568.185 449.755L571.5 470.035H585.54V438.445C573.255 434.155 560.97 431.815 548.88 431.815C520.995 431.815 502.86 448.585 502.86 470.23C502.86 479.785 507.54 489.34 516.51 496.945C525.09 504.16 534.255 507.475 542.055 511.375C555.9 518.395 562.92 525.415 562.92 535.945C562.92 546.67 553.56 554.47 537.765 554.47C531.72 554.47 526.065 553.495 520.605 551.74L518.07 548.815L514.95 525.415H500.13V560.71ZM632.903 508.613C615.162 508.613 603.636 520.139 603.636 537.541C603.636 554.604 615.049 565.904 631.999 565.904C649.853 565.904 661.266 554.491 661.266 537.767C661.266 519.8 650.192 508.613 632.903 508.613ZM632.451 514.602C640.474 514.602 645.672 522.625 645.672 537.428C645.672 552.118 640.7 559.915 632.338 559.915C624.428 559.915 619.343 551.892 619.343 537.089C619.343 522.512 624.428 514.602 632.451 514.602ZM721.286 516.41C718.235 511.212 713.715 508.5 708.065 508.5C703.093 508.5 697.217 511.099 689.533 515.619V508.952H684.109L668.176 514.263V518.783H675.521V557.768L673.939 559.463L668.176 559.915V565H695.861V559.915L691.115 559.463L689.533 557.768V520.478C693.149 519.122 696.313 518.444 699.025 518.444C706.257 518.444 709.195 522.173 709.195 530.083V557.542L707.613 559.463L702.98 559.915V565H729.648V560.028L724.563 559.463L722.981 557.768V520.704C726.71 519.348 729.874 518.557 732.699 518.557C740.157 518.557 743.095 522.286 743.095 530.761V557.768L741.513 559.463L736.654 559.915V565H764.452V559.915L758.463 559.463L756.994 557.768V527.484C756.994 514.941 751.796 508.726 741.287 508.726C737.106 508.726 730.326 511.212 721.286 516.41ZM817.856 559.915V551.892C812.319 555.282 807.008 556.977 802.149 556.977C791.64 556.977 784.747 548.954 784.747 535.394C784.747 522.512 791.64 514.376 799.55 514.376C800.341 514.376 801.245 514.489 802.375 514.715V526.693C804.409 528.162 806.556 528.84 809.042 528.84C813.901 528.84 817.178 525.563 817.178 521.156C817.178 514.263 810.172 508.839 798.533 508.839C781.583 508.839 769.379 520.93 769.379 538.106C769.379 554.491 780.114 565.904 796.499 565.904C803.731 565.904 810.624 563.87 817.856 559.915ZM837.697 481.493L820.973 486.804V491.211H829.222V557.768L827.64 559.463L821.877 559.915V565H849.788V559.915L844.816 559.463L843.121 557.768V520.478C847.415 519.235 851.031 518.557 853.969 518.557C860.975 518.557 864.139 522.399 864.139 530.761V557.768L862.557 559.463L857.698 559.915V565H885.383V559.915L879.394 559.463L877.925 557.768V527.484C877.925 514.941 872.84 508.726 862.444 508.726C857.359 508.726 851.257 511.212 843.121 515.619V481.493H837.697ZM925.349 558.559L926.818 565H946.932V560.028L940.943 559.463L939.474 557.881V528.614C939.474 514.15 934.163 508.613 918.343 508.613C903.427 508.613 893.709 515.28 893.709 521.721C893.709 524.772 895.517 525.902 898.907 525.902H909.303V515.28C911.337 514.828 913.032 514.602 914.727 514.602C922.185 514.602 925.462 518.218 925.462 526.354V529.744C901.845 535.055 891.11 538.332 891.11 551.327C891.11 559.915 897.212 566.017 905.913 566.017C912.015 566.017 918.117 563.418 925.349 558.559ZM925.349 553.926C920.942 556.186 917.326 557.316 914.388 557.316C909.19 557.316 906.026 554.039 906.026 548.841C906.026 541.383 912.015 538.445 925.349 535.507V553.926ZM951.559 565H979.47V559.915L974.498 559.463L972.916 557.768V520.478C977.21 519.235 980.826 518.557 983.651 518.557C990.77 518.557 993.821 522.399 993.821 530.761V557.768L992.239 559.463L987.38 559.915V565H1015.06V559.915L1009.08 559.463L1007.61 557.768V527.484C1007.61 514.941 1002.63 508.726 992.239 508.726C987.267 508.726 980.939 511.212 972.916 515.619V508.952H967.492L951.22 514.263V518.783H958.904V557.768L957.322 559.463L951.559 559.915V565ZM1055.23 558.559L1056.7 565H1076.82V560.028L1070.83 559.463L1069.36 557.881V528.614C1069.36 514.15 1064.05 508.613 1048.23 508.613C1033.31 508.613 1023.59 515.28 1023.59 521.721C1023.59 524.772 1025.4 525.902 1028.79 525.902H1039.19V515.28C1041.22 514.828 1042.92 514.602 1044.61 514.602C1052.07 514.602 1055.35 518.218 1055.35 526.354V529.744C1031.73 535.055 1020.99 538.332 1020.99 551.327C1020.99 559.915 1027.1 566.017 1035.8 566.017C1041.9 566.017 1048 563.418 1055.23 558.559ZM1055.23 553.926C1050.83 556.186 1047.21 557.316 1044.27 557.316C1039.07 557.316 1035.91 554.039 1035.91 548.841C1035.91 541.383 1041.9 538.445 1055.23 535.507V553.926ZM1080.76 565H1109.24V560.028L1103.59 559.576L1102.12 557.994V539.462H1107.66L1120.77 560.593V565H1142.46V560.028L1135.8 559.463L1117.83 530.309L1130.71 515.958L1138.06 515.054V510.082H1115V515.054L1119.98 515.619L1120.77 516.862L1104.61 535.733H1102.12V481.493H1097.38L1079.97 486.804V491.211H1088.22V557.768L1086.64 559.463L1080.76 560.028V565ZM1158.7 483.188C1154.07 483.188 1150.57 486.804 1150.57 491.663C1150.57 496.635 1154.3 500.025 1158.82 500.025C1163.56 500.025 1167.18 496.522 1167.18 491.437C1167.18 486.804 1163.79 483.188 1158.7 483.188ZM1159.95 508.952L1144.01 514.263V518.783H1151.47V557.768L1149.89 559.463L1143.79 559.915V565H1173.39V559.915L1167.07 559.463L1165.37 557.768V508.952H1159.95ZM1187.15 518.783V561.723C1187.15 572.797 1186.24 580.255 1183.42 584.097L1172.34 573.814C1168.27 574.605 1165.79 577.656 1165.79 581.272C1165.79 585.792 1169.74 589.182 1176.07 589.182C1183.3 589.182 1190.42 585.792 1194.83 580.142C1199.91 573.588 1200.93 565.226 1200.93 553.926V508.952H1196.19L1179.12 514.376V518.783H1187.15ZM1185.45 491.663C1185.45 496.635 1189.18 500.025 1193.7 500.025C1198.33 500.025 1202.17 496.409 1202.17 491.776C1202.17 486.804 1198.56 483.188 1193.93 483.188C1188.84 483.188 1185.45 486.691 1185.45 491.663Z" fill="#FFAB23"/>
</svg>
