<?xml version="1.0" encoding="utf-8"?>
<!-- Generator: Adobe Illustrator 25.0.0, SVG Export Plug-In . SVG Version: 6.00 Build 0)  -->
<svg version="1.1" id="Layer_1" xmlns="http://www.w3.org/2000/svg" xmlns:xlink="http://www.w3.org/1999/xlink" x="0px" y="0px"
	 viewBox="0 0 2645.3 1346.5" style="enable-background:new 0 0 2645.3 1346.5;" xml:space="preserve">
<style type="text/css">
	.st0{fill:#52361D;}
	.st1{fill:#FFAB23;}
</style>
<path class="st0" d="M1806,163.1l-578.7,153L0,0v764l574.2,582.5h1052.2h1018.8V711.8L1806,163.1z"/>
<path class="st1" d="M192.9,247.8v6.8h2.4l0.6-4l0.6-0.7h6.8v25l-0.7,0.6l-2.9,0.2v1.8h11.6v-1.8l-2.9-0.2l-0.7-0.6v-25h6.8l0.6,0.7
	l0.6,4h2.4v-6.8H192.9z M224.7,244.9l-5.3,1.7v1.3h3.3v27l-0.7,0.7l-2.4,0.2v1.7h9.7v-1.7l-2-0.2l-0.7-0.7v-14.7
	c1.8-0.9,3.5-1.5,5-1.5c3.3,0,4.4,1.3,4.4,4.6V275l-0.7,0.7l-2,0.2v1.7h9.6v-1.7l-2.4-0.2l-0.7-0.7v-12.5c0-4.4-2-6.6-5.9-6.6
	c-1.8,0-4.2,1.1-7.2,2.6v-13.4h-1.8V244.9z M250.2,246.2c-1.5,0-2.6,1.1-2.6,2.6c0,1.5,1.1,2.6,2.6,2.6c1.5,0,2.6-1.1,2.6-2.6
	C252.8,247.3,251.5,246.2,250.2,246.2z M250,255.9l-5.1,1.7v1.3h3.1v16l-0.7,0.7l-2.4,0.2v1.7h9.9v-1.7l-2.4-0.2l-0.7-0.7v-18.9
	L250,255.9L250,255.9z M271,256.6c-1.5-0.7-3.3-0.9-5.1-0.9c-5,0-7.7,2.2-7.7,6.2c0,2.9,2,4.4,5.7,6.1c2.9,1.3,4.4,2.2,4.4,4.4
	c0,2-1.7,3.5-4.2,3.5c-1.3,0-2.6-0.4-3.7-1.1l-0.6-3.7h-2.2v5.7c1.5,0.6,3.5,0.9,5.7,0.9c5.1,0,8.3-2.6,8.3-6.6
	c0-1.7-0.6-2.9-1.7-3.9c-1.5-1.1-3.1-1.8-4.6-2.6c-2.4-1.1-3.7-2.2-3.7-4c0-2,1.3-3.1,3.7-3.1c1.1,0,2.2,0.4,3.3,0.9l0.4,3.1h2.2v-5
	H271z M302.6,247.8v8.3c-1.3-0.4-2.8-0.6-3.9-0.6c-6.6,0-11.4,4.8-11.4,11.8c0,6.2,3.7,10.3,8.5,10.3c2.4,0,4.6-0.9,6.8-2.8v2.2h6.6
	v-1.7l-2.2-0.2l-0.7-0.7v-29.9h-1.7l-5.3,1.7v1.3h3.3V247.8z M302.6,273.5c-1.7,1.1-3.3,1.5-4.8,1.5c-4,0-6.6-3.1-6.6-8.3
	c0-5.5,3.1-9,7.5-9c1.1,0,2.4,0.2,3.9,0.7V273.5z M322.4,255.7c-5.9,0-10.3,4.4-10.3,11s4.4,11,10.3,11s10.3-4.4,10.3-11
	S328.5,255.7,322.4,255.7z M322.4,257.5c3.5,0,6.1,3.5,6.1,9.2c0,5.7-2.6,9.2-6.1,9.2c-3.5,0-6.1-3.5-6.1-9.2
	S318.9,257.5,322.4,257.5z M354.4,258.6c-1.1-2-2.8-2.9-4.8-2.9c-1.8,0-4.2,0.9-7,2.6v-2.4h-1.7l-5.1,1.7v1.3h3.1v16l-0.9,0.7
	l-2.4,0.2v1.7h9.7v-1.7l-2.2-0.2l-0.7-0.7v-14.7c2-0.9,3.5-1.5,5-1.5c2.6,0,3.9,1.5,3.9,4.6V275l-0.7,0.7l-2.2,0.2v1.7h9.4v-1.7
	l-2-0.2l-0.7-0.7v-14.7c1.8-0.9,3.5-1.5,5-1.5c2.8,0,4,1.5,4,4.6v11.8l-0.7,0.7l-2,0.2v1.7h9.6v-1.7l-2.4-0.2l-0.7-0.7v-12.5
	c0-4.4-2.2-6.6-5.7-6.6C360.2,255.7,357.7,256.8,354.4,258.6z M386.1,274.8l0.6,2.6h6.2v-1.7l-2.4-0.2l-0.7-0.7V262
	c0-4.4-2-6.4-6.6-6.4c-5.5,0-8.8,2.2-8.8,5c0,1.1,0.4,1.3,1.3,1.3h3.1v-3.7c1.1-0.6,2.2-0.7,3.3-0.7c3.1,0,4,1.5,4,5v1.5
	c-8.8,2.2-12.9,3.5-12.9,8.1c0,3.3,2.2,5.7,5.7,5.7C381.2,277.8,383.4,276.7,386.1,274.8z M386.1,273.3c-2.2,1.3-4,2-5.5,2
	c-2.2,0-3.5-1.5-3.5-3.7c0-3.3,2.8-4.4,9-6.1V273.3z M400.7,246.2c-1.5,0-2.6,1.1-2.6,2.6c0,1.5,1.1,2.6,2.6,2.6
	c1.5,0,2.6-1.1,2.6-2.6C403.2,247.3,401.9,246.2,400.7,246.2z M400.5,255.9l-5.1,1.7v1.3h3.1v16l-0.7,0.7l-2.4,0.2v1.7h9.9v-1.7
	l-2.4-0.2l-0.7-0.7v-18.9L400.5,255.9L400.5,255.9z M407.4,277.4h9.7v-1.7l-2.2-0.2l-0.7-0.7v-14.7c1.8-0.9,3.5-1.5,5-1.5
	c3.3,0,4.4,1.3,4.4,4.6V275l-0.7,0.7l-2.2,0.2v1.7h9.7v-1.7l-2.4-0.4l-0.7-0.7v-12.5c0-4.4-2.2-6.6-5.9-6.6c-1.8,0-4.2,1.1-7.2,2.6
	v-2.4h-1.7l-5.1,1.7v1.3h3.1v16l-0.7,0.7l-2.4,0.2L407.4,277.4L407.4,277.4z M450.2,246.2c-1.5,0-2.6,1.1-2.6,2.6
	c0,1.5,1.1,2.6,2.6,2.6c1.5,0,2.6-1.1,2.6-2.6C452.8,247.3,451.7,246.2,450.2,246.2z M450.1,255.9l-5.1,1.7v1.3h3.1v16l-0.7,0.7
	l-2.4,0.2v1.7h9.9v-1.7l-2.4-0.2l-0.7-0.7v-18.9L450.1,255.9L450.1,255.9z M471,256.6c-1.5-0.7-3.3-0.9-5.1-0.9
	c-5,0-7.7,2.2-7.7,6.2c0,2.9,2,4.4,5.7,6.1c2.9,1.3,4.4,2.2,4.4,4.4c0,2-1.7,3.5-4.2,3.5c-1.3,0-2.6-0.4-3.7-1.1l-0.6-3.7h-2.2v5.7
	c1.5,0.6,3.5,0.9,5.7,0.9c5.1,0,8.3-2.6,8.3-6.6c0-1.7-0.6-2.9-1.7-3.9c-1.5-1.1-3.1-1.8-4.6-2.6c-2.4-1.1-3.7-2.2-3.7-4
	c0-2,1.3-3.1,3.7-3.1c1.1,0,2.2,0.4,3.3,0.9l0.4,3.1h2.2v-5H471z M497.6,255.7c-5.9,0-10.3,4.4-10.3,11s4.4,11,10.3,11
	c5.9,0,10.3-4.4,10.3-11S503.5,255.7,497.6,255.7z M497.6,257.5c3.5,0,6.1,3.5,6.1,9.2c0,5.7-2.6,9.2-6.1,9.2s-6.1-3.5-6.1-9.2
	S494.2,257.5,497.6,257.5z M509.4,256.3v1.7l2.8,0.2l5.9,19.3h2.8l5.9-16.7l5.3,16.7h2.8l6.2-19.3l2.4-0.4v-1.7h-7.7v1.7l2.4,0.2
	l0.4,0.7L534,273l-5.1-16.9h-2.8l-5.9,16.9l-4-14.3l0.6-0.7l2.4-0.2v-1.7h-9.7V256.3z M544.9,277.4h9.7v-1.7l-2.2-0.2l-0.7-0.7
	v-14.7c1.8-0.9,3.5-1.5,5-1.5c3.3,0,4.4,1.3,4.4,4.6V275l-0.7,0.6l-2.2,0.2v1.7h9.7v-1.7l-2.4-0.2l-0.7-0.7v-12.5
	c0-4.4-2.2-6.6-5.9-6.6c-1.8,0-4.2,1.1-7.2,2.6v-2.4H550l-5.1,1.7v1.3h3.1v16l-0.7,0.7l-2.4,0.2L544.9,277.4L544.9,277.4z
	 M588.4,272.8c-2.6,1.7-4.8,2.6-7,2.6c-4.4,0-7.3-3.3-7.3-9c0-0.2,0-0.4,0-0.6h14.3c0-0.6,0-0.9,0-1.3c0-5.5-3.1-8.6-7.9-8.6
	c-5.9,0-10.1,4.6-10.1,11.2c0,6.4,4,10.8,9.9,10.8c2.8,0,5.7-0.9,8.3-2.6v-2.6H588.4z M584.5,264h-10.1c0.2-3.7,2.8-6.2,5.5-6.2
	c2.9,0,4.6,2,4.6,5.5C584.5,263.4,584.5,263.8,584.5,264z M607.1,247.8v8.3c-1.3-0.4-2.8-0.6-3.9-0.6c-6.6,0-11.4,4.8-11.4,11.8
	c0,6.2,3.7,10.3,8.5,10.3c2.4,0,4.6-0.9,6.8-2.8v2.2h6.6v-1.7l-2.2-0.2l-0.7-0.7v-29.9h-1.7l-5.3,1.7v1.3h3.3V247.8z M607.1,273.5
	c-1.7,1.1-3.3,1.5-4.8,1.5c-4,0-6.6-3.1-6.6-8.3c0-5.5,3.1-9,7.5-9c1.1,0,2.4,0.2,3.9,0.7V273.5z M633.2,244.9l-5.5,1.7v1.3h3.5
	v29.6h5.7c8.5,0,12.9-4,12.9-11.6c0-6.1-3.5-10.1-8.8-10.1c-2,0-3.9,0.6-6.1,1.5v-12.3H633.2z M634.9,275.4v-16.5
	c1.5-0.4,2.8-0.7,3.9-0.7c4.4,0,7,3.1,7,8.6c0,6.1-2.6,8.8-8.5,8.8C637.1,275.4,636.3,275.4,634.9,275.4z M651.2,256.3v1.7l2.8,0.2
	l7.3,19.1c-1.1,3.1-2.4,5.3-3.5,6.6l-4.2-1.7c-0.7,0.7-1.1,1.5-1.1,2.4c0,1.5,1.1,2.4,3.1,2.4c2.9,0,5-2.4,7-7.3l8.8-21.5l2.6-0.4
	v-1.7h-7.9v1.7l2.4,0.2l0.4,0.7l-5.5,13.8l-5.3-13.8l0.6-0.7l2.4-0.2v-1.7h-9.7V256.3z"/>
<path class="st1" d="M489.6,419.2v63.4h24.8l5.7-38.4l5.7-4.6h43v194.9l-6.1,5.7l-23.3,1.8v17.6h107.1V642l-23.3-1.8l-6.1-5.7V439.6
	h43l5.3,4.6l6.1,38.4h24.8v-63.4L489.6,419.2L489.6,419.2z M786.6,512.9c-46.1,0-76.1,29.9-76.1,75.3c0,44.5,29.8,73.8,73.8,73.8
	c46.5,0,76.1-29.8,76.1-73.1C860.5,541.9,831.6,512.9,786.6,512.9z M785.5,528.3c20.9,0,34.4,20.9,34.4,59.3
	c0,38.2-12.9,58.4-34.7,58.4c-20.6,0-33.8-20.9-33.8-59.3C751.3,548.9,764.6,528.3,785.5,528.3z M878.5,659.5H951v-13.2l-12.9-1.1
	l-4-4.4v-97c11.2-3.3,20.6-5,27.9-5c18.6,0,26.5,9.9,26.5,31.8v70.2l-4,4.4l-12.7,1.1v13.2h72v-13.2l-15.6-1.1l-3.9-4.4v-78.8
	c0-32.7-12.9-48.9-40-48.9c-12.9,0-29.4,6.4-50.3,18v-17.3h-14.1l-42.3,13.8v11.8h20v101.4l-4,4.4l-15.1,1.1V659.5z M1056.3,659.5
	h72.6v-13.2l-12.9-1.1l-4-4.4v-97c11.2-3.3,20.6-5,27.9-5c18.6,0,26.5,9.9,26.5,31.8v70.2l-4,4.4l-12.7,1.1v13.2h72v-13.2l-15.6-1.1
	l-3.9-4.4v-78.8c0-32.7-12.9-48.9-40-48.9c-12.9,0-29.4,6.4-50.3,18v-17.3h-14.1l-42.3,13.8v11.8h20v101.4l-4,4.4l-15.1,1.1V659.5z
	 M1325.9,642.8l3.9,16.7h52.4v-12.9l-15.6-1.5l-3.9-4v-76.1c0-37.7-13.8-52-54.9-52c-38.8,0-64.1,17.3-64.1,34.2
	c0,7.9,4.8,10.8,13.6,10.8h27v-27.6c5.3-1.1,9.7-1.8,14.1-1.8c19.5,0,27.9,9.4,27.9,30.5v8.8c-61.4,13.8-89.3,22.4-89.3,56.2
	c0,22.4,15.8,38.2,38.6,38.2C1291.4,662.1,1307.2,655.4,1325.9,642.8z M1325.9,630.6c-11.4,5.9-20.9,8.8-28.5,8.8
	c-13.6,0-21.7-8.5-21.7-22c0-19.5,15.6-27,50.3-34.7v47.9H1325.9z M1532.2,533.1c-7.9-13.6-19.7-20.6-34.4-20.6
	c-12.9,0-28.3,6.8-48.1,18.6v-17.3h-14.1l-41.5,13.8v11.8h19.1v101.4l-4,4.4l-15.1,1.1v13.2h72v-13.2l-12.3-1.1l-4-4.4v-97
	c9.4-3.5,17.6-5.3,24.6-5.3c18.7,0,26.5,9.7,26.5,30.3v71.5l-4,5l-12.1,1.1v13.2h69.4v-12.9l-13.2-1.5l-4-4.4v-96.4
	c9.7-3.5,18-5.5,25.4-5.5c19.5,0,27,9.7,27,31.8v70.2l-4,4.4l-12.7,1.1v13.2h72.4v-13.2l-15.6-1.1l-3.9-4.4v-78.8
	c0-32.7-13.6-48.9-40.8-48.9C1573.4,513.1,1555.8,519.5,1532.2,533.1z"/>
<path class="st1" d="M918.7,1030c22.2,7.9,46.3,11.8,69.1,11.8c58.8,0,95-30.9,95-73.5c0-21.1-11.4-40.4-32.1-53.6
	c-21.1-13.6-40-18.9-51.3-25.7c-18.9-11.4-29-22.2-29-38.8c0-19.7,16.2-34,42.3-34c11.4,0,19.7,1.8,26.1,5l5,5l6.1,37.3h25.7v-58
	c-22.6-7.9-45.2-12.1-67.4-12.1c-51.3,0-84.5,30.9-84.5,70.5c0,17.6,8.6,35.1,25.2,49c15.8,13.2,32.5,19.3,46.8,26.5
	c25.4,12.9,38.4,25.7,38.4,45.2c0,19.7-17.3,34-46.3,34c-11,0-21.5-1.8-31.6-5l-4.6-5.3l-5.7-43h-27.2v64.8H918.7z M1162.6,934.3
	c-32.5,0-53.8,21.1-53.8,53.1c0,31.4,20.9,52.2,52.2,52.2c32.9,0,53.8-20.9,53.8-51.6C1214.8,954.9,1194.4,934.3,1162.6,934.3z
	 M1161.9,945.3c14.7,0,24.2,14.7,24.2,41.9c0,27-9.2,41.3-24.4,41.3c-14.5,0-23.9-14.7-23.9-41.9
	C1137.7,959.8,1147,945.3,1161.9,945.3z M1325,948.6c-5.7-9.6-14-14.5-24.2-14.5c-9.2,0-19.8,4.8-34,13V935h-9.9l-29.2,9.7v8.3h13.4
	v71.6l-2.9,3.1l-10.7,0.9v9.4h50.9v-9.4l-8.6-0.9l-2.9-3.1v-68.5c6.6-2.6,12.5-3.7,17.5-3.7c13.2,0,18.7,6.8,18.7,21.3v50.5
	l-2.9,3.5l-8.5,0.9v9.4h49v-9.2l-9.4-1.1l-2.9-3.1v-68.2c6.8-2.6,12.7-3.9,17.8-3.9c13.8,0,19.1,6.8,19.1,22.4v49.6l-2.9,3.1l-9,0.9
	v9.4h51.1v-9.4l-11-0.9l-2.8-3.1V969c0-23-9.6-34.5-28.8-34.5C1354.1,934.5,1341.6,939.1,1325,948.6z M1502.5,1028.5v-14.7
	c-10.1,6.2-19.8,9.4-28.8,9.4c-19.3,0-32-14.7-32-39.7c0-23.7,12.7-38.6,27.2-38.6c1.5,0,3.1,0.2,5.1,0.6v22
	c3.7,2.8,7.7,3.9,12.3,3.9c9,0,14.9-6.1,14.9-14.1c0-12.7-12.9-22.6-34.2-22.6c-31.2,0-53.6,22.2-53.6,53.8
	c0,30.1,19.7,51.1,49.8,51.1C1476.4,1039.6,1489.1,1035.9,1502.5,1028.5z M1538.9,884.5l-30.7,9.7v8.1h15.1v122.3l-2.9,3.1
	l-10.7,0.9v9.4h51.3v-9.4l-9.2-0.9l-3.1-3.1v-68.5c7.9-2.2,14.5-3.5,19.8-3.5c12.9,0,18.7,7,18.7,22.4v49.6l-2.9,3.1l-9,0.9v9.4
	h50.9v-9.4l-11-0.9l-2.8-3.1V969c0-23-9.4-34.5-28.5-34.5c-9.4,0-20.6,4.6-35.5,12.7v-62.6L1538.9,884.5L1538.9,884.5z
	 M1699.8,1026.1l2.8,11.8h36.9v-9.2l-11-1.1l-2.8-2.9v-53.8c0-26.6-9.7-36.7-38.8-36.7c-27.4,0-45.2,12.3-45.2,24.1
	c0,5.7,3.3,7.7,9.6,7.7h19.1v-19.5c3.7-0.9,6.8-1.3,9.9-1.3c13.8,0,19.7,6.6,19.7,21.7v6.2c-43.4,9.7-63.2,15.8-63.2,39.7
	c0,15.8,11.2,27,27.2,27C1675.3,1039.7,1686.6,1035,1699.8,1026.1z M1699.8,1017.5c-8.1,4.2-14.7,6.2-20.2,6.2
	c-9.6,0-15.4-6.1-15.4-15.6c0-13.8,11-19.1,35.5-24.4v33.8H1699.8z M1748.1,1037.9h51.3v-9.4l-9.2-0.9l-2.9-3.1V956
	c7.9-2.2,14.5-3.5,19.7-3.5c13,0,18.7,7,18.7,22.4v49.6l-2.9,3.1l-9,0.9v9.4h50.9v-9.4l-11-0.9l-2.8-3.1v-55.7
	c0-23-9.2-34.5-28.3-34.5c-9.2,0-20.8,4.6-35.5,12.7V935h-9.9l-29.9,9.7v8.3h14.1v71.6l-2.9,3.1l-10.7,0.9v9.2H1748.1z
	 M1938.4,1026.1l2.8,11.8h36.9v-9.2l-11-1.1l-2.8-2.9v-53.8c0-26.6-9.7-36.7-38.8-36.7c-27.4,0-45.2,12.3-45.2,24.1
	c0,5.7,3.3,7.7,9.6,7.7h19.1v-19.5c3.7-0.9,6.8-1.3,9.9-1.3c13.8,0,19.7,6.6,19.7,21.7v6.2c-43.4,9.7-63.2,15.8-63.2,39.7
	c0,15.8,11.2,27,27.2,27C1914,1039.7,1925.2,1035,1938.4,1026.1z M1938.4,1017.5c-8.1,4.2-14.7,6.2-20.2,6.2
	c-9.6,0-15.4-6.1-15.4-15.6c0-13.8,11-19.1,35.5-24.4v33.8H1938.4z M1985.4,1037.9h52.4v-9.2l-10.5-0.9l-2.8-2.9v-34h10.1l24.1,38.8
	v8.1h39.9v-9.2l-12.3-1.1l-33.1-53.6l23.7-26.5l13.6-1.7v-9.2h-42.3v9.2l9.2,1.1l1.5,2.2l-29.8,34.7h-4.6v-99.6h-8.6l-32,9.7v8.1
	h15.2v122.3l-2.9,3.1l-10.8,1.1L1985.4,1037.9L1985.4,1037.9z M2128.5,887.6c-8.5,0-14.9,6.6-14.9,15.6c0,9.2,6.8,15.4,15.2,15.4
	c8.6,0,15.4-6.4,15.4-15.8C2144.1,894.3,2137.9,887.6,2128.5,887.6z M2130.7,935l-29.2,9.7v8.3h13.8v71.6l-2.9,3.1l-11.2,0.9v9.4
	h54.4v-9.4l-11.6-0.9l-3.1-3.1V935H2130.7z M2180.9,953v78.8c0,20.4-1.7,34-6.8,41.1l-20.4-18.9c-7.5,1.5-11.9,7-11.9,13.8
	c0,8.3,7.2,14.5,18.9,14.5c13.2,0,26.5-6.2,34.5-16.5c9.4-12.1,11.2-27.4,11.2-48.1V935h-8.6l-31.4,9.9v8.1L2180.9,953L2180.9,953z
	 M2177.6,903.3c0,9.2,6.8,15.4,15.2,15.4c8.5,0,15.6-6.6,15.6-15.1c0-9.2-6.6-15.8-15.1-15.8
	C2183.8,887.6,2177.6,894.1,2177.6,903.3z"/>
</svg>
