<svg xmlns="http://www.w3.org/2000/svg" viewBox="0 0 2645.2 1346.5"><defs><style>.cls-1{fill:#52361d;}.cls-2{fill:#ffab23;}</style></defs><g id="Layer_2" data-name="Layer 2"><g id="Layer_1-2" data-name="Layer 1"><path class="cls-1" d="M1806,163.1l-578.7,153L0,0V764l574.2,582.5h2071V711.8Z"/><path class="cls-2" d="M192.9,247.8v6.8h2.4l.6-4,.6-.7h6.8v25l-.7.6-2.9.2v1.8h11.6v-1.8l-2.9-.2-.7-.6v-25h6.8l.6.7.6,4h2.4v-6.8Zm31.8-2.9-5.3,1.7v1.3h3.3v27l-.7.7-2.4.2v1.7h9.7v-1.7l-2-.2-.7-.7V260.2a11.78,11.78,0,0,1,5-1.5c3.3,0,4.4,1.3,4.4,4.6V275l-.7.7-2,.2v1.7h9.6v-1.7l-2.4-.2-.7-.7V262.5c0-4.4-2-6.6-5.9-6.6-1.8,0-4.2,1.1-7.2,2.6V245.1h-1.8v-.2Zm25.5,1.3a2.6,2.6,0,1,0,2.6,2.6A2.65,2.65,0,0,0,250.2,246.2Zm-.2,9.7-5.1,1.7v1.3H248v16l-.7.7-2.4.2v1.7h9.9v-1.7l-2.4-.2-.7-.7V256l-1.7-.1Zm21,.7a12.19,12.19,0,0,0-5.1-.9c-5,0-7.7,2.2-7.7,6.2,0,2.9,2,4.4,5.7,6.1,2.9,1.3,4.4,2.2,4.4,4.4,0,2-1.7,3.5-4.2,3.5a7,7,0,0,1-3.7-1.1l-.6-3.7h-2.2v5.7a15.85,15.85,0,0,0,5.7.9c5.1,0,8.3-2.6,8.3-6.6a4.92,4.92,0,0,0-1.7-3.9,35.67,35.67,0,0,0-4.6-2.6c-2.4-1.1-3.7-2.2-3.7-4,0-2,1.3-3.1,3.7-3.1a8.17,8.17,0,0,1,3.3.9l.4,3.1h2.2v-5H271Zm31.6-8.8v8.3a14.26,14.26,0,0,0-3.9-.6c-6.6,0-11.4,4.8-11.4,11.8,0,6.2,3.7,10.3,8.5,10.3a10.15,10.15,0,0,0,6.8-2.8V277h6.6v-1.7l-2.2-.2-.7-.7V244.5h-1.7l-5.3,1.7v1.3h3.3v.3Zm0,25.7a8.65,8.65,0,0,1-4.8,1.5c-4,0-6.6-3.1-6.6-8.3,0-5.5,3.1-9,7.5-9a12.39,12.39,0,0,1,3.9.7Zm19.8-17.8c-5.9,0-10.3,4.4-10.3,11s4.4,11,10.3,11,10.3-4.4,10.3-11S328.5,255.7,322.4,255.7Zm0,1.8c3.5,0,6.1,3.5,6.1,9.2s-2.6,9.2-6.1,9.2-6.1-3.5-6.1-9.2S318.9,257.5,322.4,257.5Zm32,1.1a5.22,5.22,0,0,0-4.8-2.9c-1.8,0-4.2.9-7,2.6v-2.4h-1.7l-5.1,1.7v1.3h3.1v16l-.9.7-2.4.2v1.7h9.7v-1.7l-2.2-.2-.7-.7V260.2a12.64,12.64,0,0,1,5-1.5c2.6,0,3.9,1.5,3.9,4.6V275l-.7.7-2.2.2v1.7h9.4v-1.7l-2-.2-.7-.7V260.3a11.78,11.78,0,0,1,5-1.5c2.8,0,4,1.5,4,4.6v11.8l-.7.7-2,.2v1.7H371v-1.7l-2.4-.2-.7-.7V262.7c0-4.4-2.2-6.6-5.7-6.6C360.2,255.7,357.7,256.8,354.4,258.6Zm31.7,16.2.6,2.6h6.2v-1.7l-2.4-.2-.7-.7V262c0-4.4-2-6.4-6.6-6.4-5.5,0-8.8,2.2-8.8,5,0,1.1.4,1.3,1.3,1.3h3.1v-3.7a6.57,6.57,0,0,1,3.3-.7c3.1,0,4,1.5,4,5V264c-8.8,2.2-12.9,3.5-12.9,8.1a5.41,5.41,0,0,0,5.7,5.7C381.2,277.8,383.4,276.7,386.1,274.8Zm0-1.5a11.58,11.58,0,0,1-5.5,2,3.36,3.36,0,0,1-3.5-3.7c0-3.3,2.8-4.4,9-6.1Zm14.6-27.1a2.6,2.6,0,1,0,2.6,2.6A2.79,2.79,0,0,0,400.7,246.2Zm-.2,9.7-5.1,1.7v1.3h3.1v16l-.7.7-2.4.2v1.7h9.9v-1.7l-2.4-.2-.7-.7V256l-1.7-.1Zm6.9,21.5h9.7v-1.7l-2.2-.2-.7-.7V260.1a11.78,11.78,0,0,1,5-1.5c3.3,0,4.4,1.3,4.4,4.6V275l-.7.7-2.2.2v1.7h9.7v-1.7l-2.4-.4-.7-.7V262.3c0-4.4-2.2-6.6-5.9-6.6-1.8,0-4.2,1.1-7.2,2.6v-2.4h-1.7l-5.1,1.7v1.3h3.1v16l-.7.7-2.4.2v1.6Zm42.8-31.2a2.6,2.6,0,1,0,2.6,2.6A2.52,2.52,0,0,0,450.2,246.2Zm-.1,9.7-5.1,1.7v1.3h3.1v16l-.7.7-2.4.2v1.7h9.9v-1.7l-2.4-.2-.7-.7V256l-1.7-.1Zm20.9.7a12.19,12.19,0,0,0-5.1-.9c-5,0-7.7,2.2-7.7,6.2,0,2.9,2,4.4,5.7,6.1,2.9,1.3,4.4,2.2,4.4,4.4,0,2-1.7,3.5-4.2,3.5a7,7,0,0,1-3.7-1.1l-.6-3.7h-2.2v5.7a15.85,15.85,0,0,0,5.7.9c5.1,0,8.3-2.6,8.3-6.6a4.92,4.92,0,0,0-1.7-3.9,35.67,35.67,0,0,0-4.6-2.6c-2.4-1.1-3.7-2.2-3.7-4,0-2,1.3-3.1,3.7-3.1a8.17,8.17,0,0,1,3.3.9l.4,3.1h2.2v-5H471Zm26.6-.9c-5.9,0-10.3,4.4-10.3,11s4.4,11,10.3,11,10.3-4.4,10.3-11S503.5,255.7,497.6,255.7Zm0,1.8c3.5,0,6.1,3.5,6.1,9.2s-2.6,9.2-6.1,9.2-6.1-3.5-6.1-9.2S494.2,257.5,497.6,257.5Zm11.8-1.2V258l2.8.2,5.9,19.3h2.8l5.9-16.7,5.3,16.7h2.8l6.2-19.3,2.4-.4v-1.7h-7.7v1.7l2.4.2.4.7L534,273l-5.1-16.9h-2.8L520.2,273l-4-14.3.6-.7,2.4-.2v-1.7h-9.7v.2Zm35.5,21.1h9.7v-1.7l-2.2-.2-.7-.7V260.1a11.78,11.78,0,0,1,5-1.5c3.3,0,4.4,1.3,4.4,4.6V275l-.7.6-2.2.2v1.7h9.7v-1.7l-2.4-.2-.7-.7V262.4c0-4.4-2.2-6.6-5.9-6.6-1.8,0-4.2,1.1-7.2,2.6V256H550l-5.1,1.7V259H548v16l-.7.7-2.4.2v1.5Zm43.5-4.6c-2.6,1.7-4.8,2.6-7,2.6-4.4,0-7.3-3.3-7.3-9v-.6h14.3v-1.3c0-5.5-3.1-8.6-7.9-8.6-5.9,0-10.1,4.6-10.1,11.2,0,6.4,4,10.8,9.9,10.8a15.3,15.3,0,0,0,8.3-2.6v-2.6h-.2Zm-3.9-8.8H574.4c.2-3.7,2.8-6.2,5.5-6.2,2.9,0,4.6,2,4.6,5.5Zm22.6-16.2v8.3a14.26,14.26,0,0,0-3.9-.6c-6.6,0-11.4,4.8-11.4,11.8,0,6.2,3.7,10.3,8.5,10.3a10.15,10.15,0,0,0,6.8-2.8V277h6.6v-1.7l-2.2-.2-.7-.7V244.5h-1.7l-5.3,1.7v1.3h3.3v.3Zm0,25.7a8.65,8.65,0,0,1-4.8,1.5c-4,0-6.6-3.1-6.6-8.3,0-5.5,3.1-9,7.5-9a12.39,12.39,0,0,1,3.9.7v15.1Zm26.1-28.6-5.5,1.7v1.3h3.5v29.6h5.7c8.5,0,12.9-4,12.9-11.6,0-6.1-3.5-10.1-8.8-10.1a16,16,0,0,0-6.1,1.5V245h-1.7Zm1.7,30.5V258.9a16.14,16.14,0,0,1,3.9-.7c4.4,0,7,3.1,7,8.6,0,6.1-2.6,8.8-8.5,8.8C637.1,275.4,636.3,275.4,634.9,275.4Zm16.3-19.1V258l2.8.2,7.3,19.1a21.66,21.66,0,0,1-3.5,6.6l-4.2-1.7a3.36,3.36,0,0,0-1.1,2.4c0,1.5,1.1,2.4,3.1,2.4,2.9,0,5-2.4,7-7.3l8.8-21.5,2.6-.4v-1.7h-7.9v1.7l2.4.2.4.7-5.5,13.8-5.3-13.8.6-.7,2.4-.2v-1.7h-9.7v.2Z"/><path class="cls-2" d="M489.6,419.2v63.4h24.8l5.7-38.4,5.7-4.6h43V634.5l-6.1,5.7L539.4,642v17.6H646.5V642l-23.3-1.8-6.1-5.7V439.6h43l5.3,4.6,6.1,38.4h24.8V419.2Zm297,93.7c-46.1,0-76.1,29.9-76.1,75.3,0,44.5,29.8,73.8,73.8,73.8,46.5,0,76.1-29.8,76.1-73.1C860.5,541.9,831.6,512.9,786.6,512.9Zm-1.1,15.4c20.9,0,34.4,20.9,34.4,59.3,0,38.2-12.9,58.4-34.7,58.4-20.6,0-33.8-20.9-33.8-59.3C751.3,548.9,764.6,528.3,785.5,528.3Zm93,131.2H951V646.3l-12.9-1.1-4-4.4v-97c11.2-3.3,20.6-5,27.9-5,18.6,0,26.5,9.9,26.5,31.8v70.2l-4,4.4-12.7,1.1v13.2h72V646.3l-15.6-1.1-3.9-4.4V562c0-32.7-12.9-48.9-40-48.9-12.9,0-29.4,6.4-50.3,18V513.8H919.9l-42.3,13.8v11.8h20V640.8l-4,4.4-15.1,1.1v13.2Zm177.8,0h72.6V646.3l-12.9-1.1-4-4.4v-97c11.2-3.3,20.6-5,27.9-5,18.6,0,26.5,9.9,26.5,31.8v70.2l-4,4.4-12.7,1.1v13.2h72V646.3l-15.6-1.1-3.9-4.4V562c0-32.7-12.9-48.9-40-48.9-12.9,0-29.4,6.4-50.3,18V513.8h-14.1l-42.3,13.8v11.8h20V640.8l-4,4.4-15.1,1.1v13.2Zm269.6-16.7,3.9,16.7h52.4V646.6l-15.6-1.5-3.9-4V565c0-37.7-13.8-52-54.9-52-38.8,0-64.1,17.3-64.1,34.2,0,7.9,4.8,10.8,13.6,10.8h27V530.4a68.9,68.9,0,0,1,14.1-1.8c19.5,0,27.9,9.4,27.9,30.5v8.8c-61.4,13.8-89.3,22.4-89.3,56.2,0,22.4,15.8,38.2,38.6,38.2C1291.4,662.1,1307.2,655.4,1325.9,642.8Zm0-12.2c-11.4,5.9-20.9,8.8-28.5,8.8-13.6,0-21.7-8.5-21.7-22,0-19.5,15.6-27,50.3-34.7v47.9Zm206.3-97.5c-7.9-13.6-19.7-20.6-34.4-20.6-12.9,0-28.3,6.8-48.1,18.6V513.8h-14.1l-41.5,13.8v11.8h19.1V640.8l-4,4.4-15.1,1.1v13.2h72V646.3l-12.3-1.1-4-4.4v-97c9.4-3.5,17.6-5.3,24.6-5.3,18.7,0,26.5,9.7,26.5,30.3v71.5l-4,5-12.1,1.1v13.2h69.4V646.7l-13.2-1.5-4-4.4V544.4c9.7-3.5,18-5.5,25.4-5.5,19.5,0,27,9.7,27,31.8v70.2l-4,4.4-12.7,1.1v13.2h72.4V646.4l-15.6-1.1-3.9-4.4V562.1c0-32.7-13.6-48.9-40.8-48.9C1573.4,513.1,1555.8,519.5,1532.2,533.1Z"/><path class="cls-2" d="M918.7,1030a209.12,209.12,0,0,0,69.1,11.8c58.8,0,95-30.9,95-73.5,0-21.1-11.4-40.4-32.1-53.6-21.1-13.6-40-18.9-51.3-25.7-18.9-11.4-29-22.2-29-38.8,0-19.7,16.2-34,42.3-34,11.4,0,19.7,1.8,26.1,5l5,5,6.1,37.3h25.7v-58c-22.6-7.9-45.2-12.1-67.4-12.1-51.3,0-84.5,30.9-84.5,70.5,0,17.6,8.6,35.1,25.2,49,15.8,13.2,32.5,19.3,46.8,26.5,25.4,12.9,38.4,25.7,38.4,45.2,0,19.7-17.3,34-46.3,34a104,104,0,0,1-31.6-5l-4.6-5.3-5.7-43H918.7v64.8h0Zm243.9-95.7c-32.5,0-53.8,21.1-53.8,53.1,0,31.4,20.9,52.2,52.2,52.2,32.9,0,53.8-20.9,53.8-51.6C1214.8,954.9,1194.4,934.3,1162.6,934.3Zm-.7,11c14.7,0,24.2,14.7,24.2,41.9,0,27-9.2,41.3-24.4,41.3-14.5,0-23.9-14.7-23.9-41.9C1137.7,959.8,1147,945.3,1161.9,945.3Zm163.1,3.3c-5.7-9.6-14-14.5-24.2-14.5-9.2,0-19.8,4.8-34,13V935h-9.9l-29.2,9.7V953h13.4v71.6l-2.9,3.1-10.7.9v9.4h50.9v-9.4l-8.6-.9-2.9-3.1V956.1a48.24,48.24,0,0,1,17.5-3.7c13.2,0,18.7,6.8,18.7,21.3v50.5l-2.9,3.5-8.5.9v9.4h49v-9.2l-9.4-1.1-2.9-3.1V956.4c6.8-2.6,12.7-3.9,17.8-3.9,13.8,0,19.1,6.8,19.1,22.4v49.6l-2.9,3.1-9,.9v9.4h51.1v-9.4l-11-.9-2.8-3.1V969q0-34.5-28.8-34.5C1354.1,934.5,1341.6,939.1,1325,948.6Zm177.5,79.9v-14.7c-10.1,6.2-19.8,9.4-28.8,9.4-19.3,0-32-14.7-32-39.7,0-23.7,12.7-38.6,27.2-38.6a25.84,25.84,0,0,1,5.1.6v22a19.42,19.42,0,0,0,12.3,3.9c9,0,14.9-6.1,14.9-14.1,0-12.7-12.9-22.6-34.2-22.6-31.2,0-53.6,22.2-53.6,53.8,0,30.1,19.7,51.1,49.8,51.1C1476.4,1039.6,1489.1,1035.9,1502.5,1028.5Zm36.4-144-30.7,9.7v8.1h15.1v122.3l-2.9,3.1-10.7.9v9.4H1561v-9.4l-9.2-.9-3.1-3.1V956.1c7.9-2.2,14.5-3.5,19.8-3.5,12.9,0,18.7,7,18.7,22.4v49.6l-2.9,3.1-9,.9v9.4h50.9v-9.4l-11-.9-2.8-3.1V969c0-23-9.4-34.5-28.5-34.5-9.4,0-20.6,4.6-35.5,12.7V884.6l-9.5-.1Zm160.9,141.6,2.8,11.8h36.9v-9.2l-11-1.1-2.8-2.9V970.9c0-26.6-9.7-36.7-38.8-36.7-27.4,0-45.2,12.3-45.2,24.1,0,5.7,3.3,7.7,9.6,7.7h19.1V946.5a40.85,40.85,0,0,1,9.9-1.3c13.8,0,19.7,6.6,19.7,21.7v6.2c-43.4,9.7-63.2,15.8-63.2,39.7,0,15.8,11.2,27,27.2,27C1675.3,1039.7,1686.6,1035,1699.8,1026.1Zm0-8.6c-8.1,4.2-14.7,6.2-20.2,6.2-9.6,0-15.4-6.1-15.4-15.6,0-13.8,11-19.1,35.5-24.4v33.8Zm48.3,20.4h51.3v-9.4l-9.2-.9-2.9-3.1V956c7.9-2.2,14.5-3.5,19.7-3.5,13,0,18.7,7,18.7,22.4v49.6l-2.9,3.1-9,.9v9.4h50.9v-9.4l-11-.9-2.8-3.1V968.8c0-23-9.2-34.5-28.3-34.5-9.2,0-20.8,4.6-35.5,12.7V935h-9.9l-29.9,9.7V953h14.1v71.6l-2.9,3.1-10.7.9v9.2h.3Zm190.3-11.8,2.8,11.8h36.9v-9.2l-11-1.1-2.8-2.9V970.9c0-26.6-9.7-36.7-38.8-36.7-27.4,0-45.2,12.3-45.2,24.1,0,5.7,3.3,7.7,9.6,7.7H1909V946.5a40.85,40.85,0,0,1,9.9-1.3c13.8,0,19.7,6.6,19.7,21.7v6.2c-43.4,9.7-63.2,15.8-63.2,39.7,0,15.8,11.2,27,27.2,27C1914,1039.7,1925.2,1035,1938.4,1026.1Zm0-8.6c-8.1,4.2-14.7,6.2-20.2,6.2-9.6,0-15.4-6.1-15.4-15.6,0-13.8,11-19.1,35.5-24.4v33.8Zm47,20.4h52.4v-9.2l-10.5-.9-2.8-2.9v-34h10.1l24.1,38.8v8.1h39.9v-9.2l-12.3-1.1-33.1-53.6,23.7-26.5,13.6-1.7v-9.2h-42.3v9.2l9.2,1.1,1.5,2.2-29.8,34.7h-4.6V884.1h-8.6l-32,9.7v8.1h15.2v122.3l-2.9,3.1-10.8,1.1v9.5Zm143.1-150.3c-8.5,0-14.9,6.6-14.9,15.6,0,9.2,6.8,15.4,15.2,15.4,8.6,0,15.4-6.4,15.4-15.8C2144.1,894.3,2137.9,887.6,2128.5,887.6Zm2.2,47.4-29.2,9.7V953h13.8v71.6l-2.9,3.1-11.2.9v9.4h54.4v-9.4l-11.6-.9-3.1-3.1V935Zm50.2,18v78.8c0,20.4-1.7,34-6.8,41.1l-20.4-18.9c-7.5,1.5-11.9,7-11.9,13.8,0,8.3,7.2,14.5,18.9,14.5,13.2,0,26.5-6.2,34.5-16.5,9.4-12.1,11.2-27.4,11.2-48.1V935h-8.6l-31.4,9.9V953Zm-3.3-49.7c0,9.2,6.8,15.4,15.2,15.4a15.33,15.33,0,0,0,15.6-15.1c0-9.2-6.6-15.8-15.1-15.8C2183.8,887.6,2177.6,894.1,2177.6,903.3Z"/></g></g></svg>